<svg xmlns="http://www.w3.org/2000/svg" viewBox="0 0 128 128" role="img" aria-label="Pacific controller icon">
  <defs>
    <linearGradient id="controller-body" x1="12" y1="44" x2="116" y2="96" gradientUnits="userSpaceOnUse">
      <stop offset="0" stop-color="#60a5fa" />
      <stop offset="1" stop-color="#1d4ed8" />
    </linearGradient>
  </defs>
  <path
    d="M34 42h60c11 0 20 8 22 19l2 12c2 13-8 25-22 25H30C16 98 6 86 8 73l2-12c2-11 13-19 24-19Z"
    fill="url(#controller-body)"
    stroke="#e0f2fe"
    stroke-linejoin="round"
    stroke-width="4"
  />
  <rect
    x="39"
    y="50"
    width="50"
    height="22"
    rx="4"
    fill="#0b1120"
    stroke="#93c5fd"
    stroke-width="3"
  />
  <circle cx="28" cy="59" r="8" fill="#0b1120" stroke="#eff6ff" stroke-width="3" />
  <circle cx="100" cy="77" r="8" fill="#0b1120" stroke="#eff6ff" stroke-width="3" />
  <path d="M22 74h12M28 68v12" stroke="#eff6ff" stroke-linecap="round" stroke-width="6" />
  <circle cx="97" cy="56" r="3.5" fill="#eff6ff" />
  <circle cx="106" cy="63" r="3.5" fill="#eff6ff" />
  <circle cx="97" cy="70" r="3.5" fill="#eff6ff" />
  <circle cx="88" cy="63" r="3.5" fill="#eff6ff" />
  <rect x="21" y="84" width="10" height="4" rx="2" fill="#dbeafe" />
  <rect x="97" y="84" width="10" height="4" rx="2" fill="#dbeafe" />
</svg>
